<?xml version="1.0" encoding="utf-8"?>
<!-- Generator: Adobe Illustrator 15.0.2, SVG Export Plug-In  -->
<!DOCTYPE svg PUBLIC "-//W3C//DTD SVG 1.1//EN" "http://www.w3.org/Graphics/SVG/1.1/DTD/svg11.dtd" [
	<!ENTITY ns_flows "http://ns.adobe.com/Flows/1.0/">
]>
<svg version="1.1"
	 xmlns="http://www.w3.org/2000/svg" xmlns:xlink="http://www.w3.org/1999/xlink" xmlns:a="http://ns.adobe.com/AdobeSVGViewerExtensions/3.0/"
	 x="0px" y="0px" width="180px" height="112px" viewBox="-1 -1.272 180 112" enable-background="new -1 -1.272 180 112"
	 xml:space="preserve">
<defs>
</defs>
<path fill="#BD0926" d="M86.024,14.131v6.164h3.731h8.497v2.571H86.024v14.959h3.731h8.497v2.57H86.024v7.647h23.283V14.131H86.024z
	 M100.547,40.378h-0.906v-2.553h0.906c0.72,0,1.295,0.571,1.295,1.275C101.842,39.812,101.267,40.378,100.547,40.378z
	 M100.547,22.852h-0.906v-2.557h0.906c0.72,0,1.295,0.57,1.295,1.28C101.842,22.28,101.267,22.852,100.547,22.852z"/>
<path fill="#BD0926" d="M0.003,53.343L0,52.726l16.319-0.129l0.005,0.617c-5.031,0.083-6.06,0.97-6.027,5.061l0.119,14.955
	c0.051,6.201,1.623,8.828,7.502,8.78c6.257-0.05,8.488-3.497,8.428-10.755L26.25,59.292c-0.033-4.136-1.788-6.013-5.88-6.112
	l-0.007-0.616l12.042-0.095l0.004,0.616c-3.667,0.204-5.344,2.241-5.309,6.376l0.091,11.436c0.064,8.048-2.634,11.767-9.783,11.821
	c-4.562,0.038-7.77-1.169-9.626-3.661c-1.425-1.88-1.492-4.476-1.521-8.038L6.158,58.308C6.124,54.217,5.037,53.347,0.003,53.343z"
	/>
<path fill="#BD0926" d="M31.172,80.96l1.223-0.01c2.023-0.017,2.443-0.373,2.428-2.219l-0.094-11.789
	c-0.019-2.463-0.542-3.117-3.364-3.097c-0.188,0.002-0.375,0.005-0.611,0.005l-0.004-0.615l7.242-0.232l0.045,5.718l0.189,0.042
	c1.144-3.968,3.526-6.01,6.772-6.035c3.764-0.031,5.567,2.241,5.604,6.903l0.073,8.973c0.014,1.847,0.441,2.195,2.415,2.181
	l1.317-0.01l0.005,0.615L43.97,81.474l-0.006-0.617l1.132-0.008c1.929-0.016,2.347-0.372,2.333-2.218l-0.09-11.262
	c-0.021-2.639-1.067-3.993-3.09-3.978c-3.384,0.027-6.223,3.964-6.167,10.827l0.035,4.485c0.012,1.759,0.393,2.197,2.321,2.182
	l1.174-0.01l0.007,0.616l-10.442,0.083L31.172,80.96z"/>
<path fill="#BD0926" d="M54.645,63.661c-0.186,0.002-0.375,0.003-0.611,0.004L54.03,63.05l7.241-0.232l0.126,15.701
	c0.013,1.758,0.394,2.195,2.321,2.181l1.175-0.009l0.005,0.615l-10.439,0.083l-0.006-0.616l1.224-0.009
	c2.021-0.017,2.443-0.371,2.426-2.218L58.01,66.757C57.99,64.294,57.468,63.64,54.645,63.661z M61.296,57.489
	c0.008,1.275-0.973,2.164-2.29,2.174c-1.269,0.01-2.265-0.906-2.273-2.138c-0.01-1.188,0.971-2.119,2.241-2.128
	C60.242,55.386,61.287,56.301,61.296,57.489z"/>
<path fill="#BD0926" d="M68.173,67.292c-1.151-2.674-2.288-3.678-5.205-3.697l-0.005-0.615l11.289-0.09l0.004,0.615
	c-2.352,0.02-3.523,0.468-3.516,1.303c0.003,0.662,0.15,1.23,0.39,1.757l4.893,11.839l3.779-9.445
	c0.462-1.104,0.643-2.159,0.635-3.127c-0.01-1.32-1.099-2.148-3.171-2.352l-0.005-0.615l8.278-0.066l0.004,0.616
	c-2.255,0.151-3.606,1.877-4.989,5.229l-5.444,13.373l-0.706,0.004L68.173,67.292z"/>
<path fill="#BD0926" d="M94.064,81.909c-2.303,0.018-4.381-0.801-5.943-2.285c-2.135-2.006-3.285-4.723-3.306-7.494
	c-0.016-2.023,0.627-3.92,1.834-5.909c1.625-2.608,4.435-4.257,6.974-4.277c4.092-0.032,7.506,3.458,7.977,9.349l-13.075,0.105
	c-0.041,0.572-0.039,1.143-0.033,1.67c0.042,5.322,2.18,8.076,6.131,8.045c3.245-0.025,5.534-2.023,6.164-5.46l0.611-0.003
	C100.82,79.524,98.063,81.876,94.064,81.909z M93.555,70.872c3.245-0.025,4.135-0.342,4.115-2.891
	c-0.028-3.607-1.549-5.529-4.23-5.508c-3.198,0.023-4.965,2.676-4.924,7.691c0.001,0.219,0.002,0.482,0.006,0.748L93.555,70.872z"/>
<path fill="#BD0926" d="M102.896,63.274c-0.186,0.004-0.374,0.005-0.608,0.006l-0.005-0.614l7.146-0.233l0.045,5.541l0.235-0.001
	c0.959-3.616,3.246-5.612,6.069-5.634c2.352-0.02,3.868,1.287,3.882,3.179c0.013,1.539-0.965,2.603-2.236,2.612
	c-1.409,0.012-2.404-0.902-2.416-2.178c-0.014-1.85,1.913-1.909,1.91-2.348c-0.004-0.309-0.663-0.611-1.605-0.604
	c-3.055,0.024-5.754,3.785-5.707,9.591l0.045,5.542c0.014,1.76,0.395,2.195,2.32,2.182l1.647-0.014l0.005,0.615l-10.912,0.087
	l-0.006-0.616l1.225-0.01c2.02-0.016,2.442-0.37,2.427-2.217l-0.095-11.788C106.242,63.909,105.722,63.253,102.896,63.274z"/>
<path fill="#BD0926" d="M120.899,73.425l0.563-0.004c1.782,5.045,4.813,7.614,8.01,7.59c2.492-0.021,3.987-1.308,3.973-3.287
	c-0.014-1.715-1.01-2.675-3.229-3.626c-2.736-1.165-5.047-1.851-6.654-2.938c-1.845-1.261-2.747-2.573-2.763-4.333
	c-0.022-2.771,2.358-5.076,5.508-5.1c3.294-0.027,4.957,2.158,5.853,2.15c0.609-0.005,1.217-0.713,1.58-2.166l0.564-0.005l0.059,7.3
	l-0.564,0.004c-1.492-4.343-4.335-6.738-7.155-6.716c-2.399,0.02-3.754,1.128-3.738,3.063c0.015,1.717,1.058,2.852,3.228,3.714
	c2.595,1.034,4.857,1.677,6.465,2.632c2.175,1.303,3.314,2.832,3.33,4.637c0.023,3.035-2.357,5.208-6.119,5.24
	c-1.646,0.012-3.016-0.506-4.528-1.506c-0.803-0.521-1.372-1-1.937-0.994c-0.799,0.005-1.356,0.891-1.814,2.607l-0.564,0.005
	L120.899,73.425z"/>
<path fill="#BD0926" d="M137.186,63.003c-0.189,0-0.378,0.003-0.613,0.005l-0.004-0.616l7.242-0.233l0.123,15.702
	c0.016,1.759,0.396,2.196,2.324,2.18l1.176-0.009l0.004,0.615l-10.441,0.085l-0.005-0.616l1.224-0.01
	c2.023-0.017,2.443-0.372,2.428-2.218l-0.094-11.789C140.53,63.636,140.006,62.98,137.186,63.003z M143.833,56.829
	c0.011,1.276-0.97,2.164-2.286,2.176c-1.271,0.01-2.265-0.906-2.275-2.137c-0.009-1.188,0.971-2.121,2.24-2.132
	C142.783,54.728,143.823,55.643,143.833,56.829z"/>
<path fill="#BD0926" d="M157.547,80.303c2.541-0.019,3.981-2.187,3.949-6.146c-0.002-0.176-0.004-0.352-0.004-0.529l0.705-0.005
	c0,0.177,0.002,0.353,0.004,0.528c0.038,4.706-1.873,7.009-5.775,7.041c-3.67,0.027-4.953-1.896-4.988-6.207l-0.093-11.568
	l-4.093,0.033l-0.006-0.836c3.945-0.646,6.086-3.435,6.284-8.32l1.032-0.008l0.065,7.961l6.021-0.047l0.01,1.143l-6.021,0.049
	l0.101,12.623C154.762,78.962,155.384,80.32,157.547,80.303z"/>
<path fill="#BD0926" d="M172.465,81.282c-2.305,0.02-4.382-0.8-5.945-2.283c-2.133-2.006-3.282-4.725-3.307-7.494
	c-0.014-2.023,0.63-3.921,1.836-5.91c1.626-2.607,4.434-4.258,6.974-4.277c4.091-0.032,7.506,3.458,7.978,9.35l-13.074,0.104
	c-0.043,0.572-0.039,1.143-0.035,1.672c0.041,5.322,2.182,8.076,6.131,8.045c3.245-0.025,5.534-2.025,6.166-5.46l0.611-0.006
	C179.219,78.899,176.462,81.251,172.465,81.282z M171.953,70.247c3.245-0.027,4.137-0.342,4.115-2.893
	c-0.027-3.606-1.547-5.529-4.229-5.508c-3.2,0.025-4.965,2.678-4.925,7.691c0.003,0.221,0.003,0.484,0.005,0.75L171.953,70.247z
	 M170.167,58.913l-1.128,0.01l5.498-6.599c0.607-0.709,1.074-1.108,1.639-1.112c0.706-0.005,1.274,0.517,1.279,1.134
	c0.004,0.527-0.369,0.925-1.07,1.503L170.167,58.913z"/>
<path fill="#A38977" d="M54.296,97.379v7.427c0,3.619,0.967,4.297,5.563,4.297v0.527H45.508v-0.527
	c4.314-0.037,5.241-0.793,5.241-4.297V89.501c0-3.506-0.927-4.259-5.241-4.297v-0.529h12.054c8.101,0,12.416,2.564,12.416,6.41
	c0,3.844-3.952,6.294-11.65,6.294H54.296z M57.603,96.853c5.441,0,8.021-1.51,8.021-5.617c0-4.26-2.541-6.031-7.942-6.031
	c-3.265,0-3.385,0.226-3.385,2.826v8.822H57.603z"/>
<path fill="#A38977" d="M78.876,94.702c2.297,1.848,3.588,4.486,3.588,7.088c0,2.6-1.291,5.201-3.588,7.048
	c-1.209,0.979-2.66,1.471-4.192,1.471c-1.532,0-2.983-0.491-4.193-1.471c-2.256-1.847-3.588-4.448-3.588-7.048
	c0-2.602,1.291-5.24,3.588-7.088c1.21-0.979,2.623-1.471,4.193-1.471S77.667,93.723,78.876,94.702z M70.089,101.752
	c0,5.392,1.491,8.104,4.596,8.104s4.594-2.712,4.594-8.104c0-5.429-1.489-8.067-4.594-8.067S70.089,96.323,70.089,101.752z"/>
<path fill="#A38977" d="M82.487,94.438c-0.163,0-0.324,0-0.525,0v-0.527l6.208-0.15v13.457c0,1.508,0.322,1.885,1.975,1.885h1.008
	v0.527h-8.95v-0.527h1.049c1.733,0,2.095-0.302,2.095-1.885V97.116C85.346,95.005,84.903,94.438,82.487,94.438z M88.25,88.304
	c0,1.092-0.847,1.847-1.975,1.847c-1.089,0-1.935-0.792-1.935-1.847c0-1.02,0.846-1.81,1.935-1.81
	C87.362,86.494,88.25,87.284,88.25,88.304z"/>
<path fill="#A38977" d="M99.816,109.403c2.178,0,3.429-1.846,3.429-5.238c0-0.151,0-0.302,0-0.453h0.604c0,0.151,0,0.302,0,0.453
	c0,4.032-1.654,5.992-5,5.992c-3.145,0-4.232-1.658-4.232-5.352v-9.914h-3.508v-0.717c3.389-0.527,5.242-2.902,5.441-7.086h0.889
	v6.822h5.16v0.98h-5.16v10.816C97.439,108.235,97.963,109.403,99.816,109.403z"/>
<path fill="#A38977" d="M105.338,94.438c-0.162,0-0.323,0-0.527,0v-0.527l6.209-0.15v13.457c0,1.508,0.324,1.885,1.978,1.885h1.007
	v0.527h-8.949v-0.527h1.048c1.733,0,2.097-0.302,2.097-1.885V97.116C108.199,95.005,107.756,94.438,105.338,94.438z M111.1,88.304
	c0,1.092-0.846,1.847-1.973,1.847c-1.088,0-1.936-0.792-1.936-1.847c0-1.02,0.848-1.81,1.936-1.81S111.1,87.284,111.1,88.304z"/>
<path fill="#A38977" d="M121.25,110.347c-1.975,0-3.748-0.717-5.08-1.998c-1.813-1.734-2.779-4.071-2.779-6.445
	c0-1.734,0.563-3.355,1.611-5.051c1.41-2.225,3.83-3.621,6.006-3.621c3.508,0,6.41,3.018,6.773,8.067h-11.207
	c-0.039,0.491-0.039,0.979-0.039,1.433c0,4.563,1.813,6.937,5.199,6.937c2.781,0,4.758-1.696,5.32-4.636h0.523
	C127.055,108.349,124.679,110.347,121.25,110.347z M120.887,100.885c2.783,0,3.549-0.264,3.549-2.45c0-3.092-1.29-4.75-3.588-4.75
	c-2.74,0-4.273,2.262-4.273,6.56c0,0.188,0,0.413,0,0.641H120.887z"/>
<path fill="#A38977" d="M128.948,94.438c-0.163,0-0.323,0-0.525,0v-0.527l6.128-0.15v4.749h0.202
	c0.846-3.091,2.821-4.787,5.24-4.787c2.015,0,3.306,1.131,3.306,2.751c0,1.32-0.846,2.226-1.934,2.226
	c-1.212,0-2.058-0.793-2.058-1.886c0-1.584,1.653-1.62,1.653-1.998c0-0.264-0.564-0.527-1.371-0.527
	c-2.619,0-4.958,3.203-4.958,8.18v4.75c0,1.508,0.323,1.885,1.975,1.885h1.412v0.527h-9.353v-0.527h1.049
	c1.732,0,2.096-0.302,2.096-1.885V97.116C131.811,95.005,131.367,94.438,128.948,94.438z"/>
<path fill="#A38977" d="M144.998,103.259h0.483c1.491,4.336,4.071,6.559,6.813,6.559c2.137,0,3.426-1.092,3.426-2.789
	c0-1.469-0.846-2.299-2.74-3.129c-2.34-1.016-4.314-1.621-5.685-2.563c-1.571-1.093-2.337-2.224-2.337-3.732
	c0-2.375,2.055-4.333,4.756-4.333c2.82,0,4.232,1.884,4.998,1.884c0.523,0,1.049-0.604,1.369-1.848h0.484v6.257h-0.484
	c-1.249-3.731-3.666-5.804-6.086-5.804c-2.057,0-3.225,0.941-3.225,2.601c0,1.47,0.886,2.45,2.74,3.203
	c2.217,0.905,4.154,1.472,5.523,2.3c1.854,1.132,2.822,2.451,2.822,3.995c0,2.603-2.058,4.449-5.281,4.449
	c-1.41,0-2.58-0.453-3.868-1.32c-0.687-0.451-1.169-0.865-1.653-0.865c-0.686,0-1.17,0.753-1.573,2.224h-0.483V103.259z"/>
<path fill="#BD0926" d="M89.089,8.619c0-0.004,0-0.005,0-0.008h1.651c0.004-0.032,0.011-0.091,0.011-0.179V8.147V7.875
	c0-0.087-0.007-0.147-0.011-0.185c-0.063-0.006-0.128-0.009-0.209-0.006C90.45,7.688,90.377,7.69,90.3,7.695
	C90.227,7.7,90.158,7.698,90.094,7.69c-0.063-0.006-0.109-0.033-0.137-0.08c-0.049-0.209-0.029-0.387,0.051-0.535
	c0.084-0.152,0.191-0.27,0.327-0.354c0.136-0.077,0.281-0.126,0.441-0.137c0.165-0.011,0.304,0.016,0.423,0.091
	c0.121,0.071,0.203,0.184,0.246,0.336c0.048,0.155,0.023,0.353-0.066,0.599c0.338-0.015,0.609-0.104,0.815-0.28
	c0.201-0.171,0.349-0.377,0.437-0.617s0.113-0.496,0.086-0.768c-0.031-0.274-0.117-0.516-0.254-0.731
	c-0.138-0.213-0.334-0.382-0.573-0.503c-0.243-0.127-0.532-0.156-0.872-0.099c-0.303,0.057-0.553,0.182-0.744,0.384
	s-0.346,0.446-0.471,0.729c-0.124,0.284-0.222,0.599-0.289,0.943c-0.074,0.344-0.146,0.684-0.208,1.022h-0.353
	C88.895,7.42,88.878,7.155,88.905,6.9c0.024-0.26,0.074-0.517,0.15-0.768c0.076-0.257,0.165-0.509,0.268-0.762
	c0.105-0.25,0.208-0.5,0.311-0.751c0.102-0.249,0.188-0.5,0.262-0.749c0.067-0.251,0.11-0.502,0.124-0.761
	c0.018-0.32-0.018-0.625-0.092-0.919c-0.08-0.292-0.189-0.569-0.326-0.831c-0.141-0.261-0.302-0.502-0.493-0.728
	C88.924,0.404,88.725,0.198,88.519,0c-0.211,0.198-0.409,0.404-0.596,0.631c-0.189,0.226-0.353,0.467-0.489,0.728
	c-0.142,0.262-0.248,0.539-0.326,0.831c-0.079,0.293-0.11,0.599-0.096,0.919c0.015,0.386,0.097,0.761,0.246,1.136
	c0.147,0.374,0.3,0.751,0.458,1.125c0.15,0.381,0.276,0.762,0.371,1.142c0.093,0.382,0.093,0.773,0.001,1.178H87.73
	c-0.068-0.338-0.134-0.678-0.207-1.022c-0.073-0.345-0.169-0.659-0.292-0.943c-0.124-0.283-0.281-0.526-0.47-0.729
	c-0.192-0.203-0.442-0.328-0.751-0.384c-0.333-0.057-0.622-0.029-0.87,0.099c-0.241,0.122-0.433,0.29-0.569,0.503
	c-0.14,0.215-0.222,0.457-0.253,0.731c-0.028,0.272,0,0.529,0.083,0.768c0.087,0.239,0.23,0.446,0.437,0.617
	c0.208,0.176,0.477,0.266,0.818,0.28c-0.1-0.246-0.125-0.444-0.077-0.599c0.051-0.152,0.136-0.265,0.255-0.336
	c0.118-0.075,0.258-0.102,0.421-0.091c0.158,0.011,0.309,0.06,0.449,0.137c0.138,0.084,0.246,0.202,0.325,0.354
	c0.079,0.148,0.097,0.326,0.062,0.535c-0.03,0.047-0.075,0.074-0.141,0.08c-0.063,0.007-0.135,0.01-0.208,0.004
	c-0.075-0.004-0.15-0.007-0.229-0.011c-0.079-0.002-0.148,0-0.208,0.006c-0.007,0.038-0.01,0.098-0.015,0.185
	c-0.005,0.085-0.008,0.181-0.008,0.272c0,0.101,0.003,0.194,0.008,0.285c0.005,0.087,0.007,0.147,0.015,0.179h1.64
	c0,0.002-0.002,0.003-0.002,0.008H89.089z"/>
<path fill="#A38977" d="M87.462,12.156c-0.003-0.257,0.351-0.465,0.351-0.465c-1.193-0.287-2.007,0.065-2.673,0.709
	c-0.241-0.373-0.845-0.796-2.376,0.142c-0.883,0.541-1.513,1.768-1.938,2.958c-1.264,2.221-2.432,2.836-3.205,2.954
	c-0.523,0.011-0.827-0.072-0.827-0.072c-0.305-0.184-0.764-1.331-0.764-1.331c-0.758,1.347-3.86,1.237-3.647-0.627
	c0.233-2.03,2.568-0.24,2.568-0.24c0.07-0.278,0.455-0.158,0.838-0.865c0.383-0.714,0.38-1.505,0.38-1.505
	c-2.444-0.144-1.845-1.655-1.845-1.655c0.98-1.394,2.33-0.094,2.33-0.094c0.615-0.279,0.216-1.635,0.216-1.635l0.287,0.002
	l0.199-0.7c0.156-0.885-0.586-1.053-0.586-1.053l-1.954-0.548c-0.871-1.347-1.93-1.015-3.044-1.052
	c-1.118-0.041-1.668-1.236-1.668-1.236c-0.337,0.303-0.44,1.577-0.44,1.577c-1.173,0.021-2.402-0.842-2.402-0.842
	c-0.026,0.637,0.576,1.36,0.576,1.36c-2.869,0.088-3.772,2.949-3.899,3.459c-0.123,0.51-0.637,0.847-0.637,0.847
	c0.516,0.073,1.375-0.225,1.375-0.225l-0.084,0.162c0,0-2.302,5.07-0.706,7.149c3.862,5.042,2.154,6.243,2.154,6.243
	c1.229,0.56,2.42-0.545,2.42-0.545c0.11,1.899,1.786,3.46,1.786,3.46c-0.557-1.232-0.005-2.139-0.005-2.139
	c2.632,3.645,1.625,5.247-0.727,9.606c-2.346,4.36-0.823,5.432-0.823,5.432c-0.787,0.186-1.313,0.657-2.376-0.929
	c-1.055-1.587,2.541-8.284,2.541-8.284c0.023-0.176,1.058-3.334-0.357-4.424c-1.411-1.093-3.036,0.502-3.036,0.502
	c-2.736,0.181-3.204,3.162-2.926,4.355c0.282,1.207,0.483,2.095,0.483,2.095c0.771-0.079,1.241-2.517,1.241-2.517
	c0.377,0.124,0.745,1.474,0.745,1.474c0.575-0.249,0.591-2.854,0.591-2.854c0.544,0.288,0.517,1.843,0.517,1.843
	c0.565-0.723,0.125-3.966,0.125-3.966c2.031-1.108,2.15,1.189,2.082,1.796c-0.237,2.067-3.356,7.052-2.887,9.827
	c0.466,2.779,3.236,2.346,3.236,2.346s0.279-0.469,1.189,2.509c1.048,3.425-2.455,3.802-2.455,3.802l1.087,0.542
	c-1.041,0.477-2.386,2.15-2.244,5.497c0.138,3.347,4.431,2.342,5.029,1.93c0.794-0.547,2.07-0.345,2.07-0.345l0.271-0.397
	c0.312-1.804-1.318-1.511-1.318-1.511l0.66-0.347c-0.316-0.875-1.596-0.249-1.596-0.249l0.04-0.316
	c-1.873-0.61-2.193,1.555-2.193,1.555c-2.253-2.689-0.863-4.168,3.695-5.523c4.562-1.351,3.224-7.139,3.224-7.139
	c0.463,0.06,2.231-1.263,2.231-1.263c-0.049,4.564-1.451,5.327-1.724,5.433c0.486-0.161,3.574,0.824,3.574,0.824
	c6.117,0.839,7.83-1.975,7.635-2.435c-0.141-0.337-0.362-0.354-0.472-0.339c0.401-0.081,0.363-0.474,0.363-0.474
	c0.075-0.566-1.088-0.541-1.088-0.541c0.144-0.273,0.285-0.248,0.285-0.248c-2.346-1.692-3.32,1.55-3.32,1.55
	c-1.044,0.261-3.596-0.148-3.596-0.148c-0.471-1.114,2.019-3.501,2.019-3.501s3.811-2.538,0.805-6.12
	c-3.002-3.58-7.418,1.085-7.418,1.085c0.51-2.214,3.107-3.788,4.945-5.645c1.84-1.86,1.2-5.236,1.2-5.236l1.757-0.167
	c-1.031-7.809,2.471-9.411,2.701-9.78c0.229-0.367,1.638-0.363,1.638-0.363c0.73-0.553-0.02-1.739-0.02-1.739
	c0.681-0.239,1.34,0.539,1.34,0.539C89.735,11.947,87.462,12.156,87.462,12.156z"/>
<path fill="#A38977" d="M76.634,46.829c-0.016,0.006-0.037,0.008-0.046,0.015C76.587,46.844,76.604,46.84,76.634,46.829z"/>
<path fill="#FFFFFF" d="M72.94,8.392c0,0,0.177,0.313-0.056,0.427c-0.235,0.114-0.59,0.354-0.969,0.197
	c-0.378-0.155-0.26-0.506-0.26-0.506L72.94,8.392z"/>
<path fill="#A38977" d="M118.028,46.897c0.031,0.012,0.05,0.017,0.05,0.017C118.066,46.906,118.045,46.903,118.028,46.897z"/>
<path fill="#A38977" d="M129.2,28.324c0,0-1.622-1.598-3.036-0.504c-1.412,1.09-0.377,4.249-0.355,4.428
	c0,0,3.598,6.693,2.538,8.281c-1.06,1.583-1.591,1.111-2.376,0.927c0,0,1.527-1.07-0.82-5.429c-2.352-4.358-3.355-5.966-0.728-9.605
	c0,0,0.553,0.903-0.007,2.136c0,0,1.678-1.563,1.789-3.459c0,0,1.19,1.104,2.418,0.543c0,0-1.709-1.199,2.155-6.242
	c1.597-2.082-0.704-7.15-0.704-7.15l-0.086-0.166c0,0,0.859,0.296,1.376,0.229c0,0-0.513-0.341-0.64-0.848
	c-0.125-0.51-1.028-3.371-3.898-3.459c0,0,0.604-0.72,0.578-1.358c0,0-1.231,0.862-2.404,0.842c0,0-0.104-1.271-0.44-1.58
	c0,0-0.55,1.199-1.667,1.238c-1.113,0.035-2.172-0.291-3.044,1.053l-1.958,0.545c0,0-0.733,0.17-0.583,1.055l0.2,0.697l0.293-0.003
	c0,0-0.4,1.36,0.211,1.637c0,0,1.352-1.3,2.33,0.094c0,0,0.6,1.514-1.843,1.652c0,0-0.004,0.799,0.378,1.509
	c0.384,0.708,0.766,0.586,0.841,0.867c0,0,2.331-1.791,2.566,0.235c0.209,1.871-2.896,1.976-3.649,0.629
	c0,0-0.463,1.147-0.764,1.331c0,0-0.309,0.085-0.835,0.072c-0.776-0.121-1.94-0.744-3.202-2.967
	c-0.426-1.186-1.053-2.406-1.932-2.945c-1.529-0.937-2.133-0.513-2.375-0.14c-0.665-0.645-1.481-0.997-2.676-0.711
	c0,0,0.353,0.208,0.35,0.462c0,0-2.27-0.207-1.521,1.938c0,0,0.659-0.775,1.344-0.536c0,0-0.751,1.184-0.025,1.737
	c0,0,1.413-0.005,1.643,0.363c0.228,0.368,3.735,1.969,2.7,9.78l1.764,0.166c0,0-0.644,3.376,1.197,5.236
	c1.838,1.858,4.432,3.433,4.941,5.647c0,0-4.418-4.667-7.419-1.084c-3.002,3.578,0.804,6.119,0.804,6.119s2.488,2.386,2.018,3.497
	c0,0-2.549,0.407-3.596,0.149c0,0-0.971-3.236-3.32-1.551c0,0,0.145-0.021,0.286,0.25c0,0-1.161-0.025-1.088,0.544
	c0,0-0.038,0.388,0.36,0.473c-0.109-0.017-0.326,0.001-0.466,0.335c-0.196,0.461,1.515,3.275,7.63,2.432c0,0,3.08-0.979,3.575-0.819
	c-0.279-0.11-1.673-0.881-1.719-5.434c0,0,1.767,1.325,2.23,1.261c0,0-1.338,5.791,3.222,7.143c4.559,1.354,5.948,2.835,3.695,5.521
	c0,0-0.322-2.168-2.195-1.557l0.043,0.323c0,0-1.279-0.626-1.6,0.246l0.663,0.349c0,0-1.63-0.294-1.321,1.509l0.27,0.402
	c0,0,1.277-0.207,2.072,0.34c0.596,0.408,4.895,1.419,5.031-1.929c0.137-3.352-1.201-5.019-2.247-5.497l1.091-0.542
	c0,0-3.502-0.385-2.457-3.801c0.91-2.982,1.188-2.509,1.188-2.509s2.774,0.428,3.24-2.349c0.466-2.776-2.652-7.759-2.893-9.829
	c-0.066-0.605,0.056-2.9,2.082-1.793c0,0-0.441,3.245,0.124,3.964c0,0-0.024-1.548,0.519-1.839c0,0,0.018,2.604,0.592,2.854
	c0,0,0.367-1.353,0.748-1.473c0,0,0.466,2.436,1.236,2.512c0,0,0.205-0.885,0.486-2.091C132.406,31.486,131.939,28.505,129.2,28.324
	z"/>
<path fill="none" stroke="#FFFFFF" stroke-width="0.3584" d="M123.436,8.775c-1.602-0.621-2.976-0.041-2.484-0.144L73.713,8.565
	c0.491,0.102-0.88-0.477-2.485,0.142"/>
<path fill="#FFFFFF" d="M121.727,8.459c0,0-0.178,0.315,0.057,0.428c0.232,0.115,0.591,0.358,0.966,0.198
	c0.38-0.159,0.259-0.508,0.259-0.508L121.727,8.459z"/>
<path fill="#BD0926" d="M98.297,8.619c0-0.004-0.004-0.005-0.004-0.008h1.654c0.005-0.032,0.011-0.091,0.011-0.179V8.147V7.875
	c0-0.087-0.006-0.147-0.011-0.185c-0.061-0.006-0.13-0.009-0.209-0.006c-0.078,0.004-0.157,0.006-0.231,0.011
	C99.434,7.7,99.365,7.698,99.301,7.69c-0.068-0.006-0.113-0.033-0.143-0.08c-0.043-0.209-0.023-0.387,0.059-0.535
	c0.082-0.152,0.188-0.27,0.326-0.354c0.133-0.077,0.281-0.126,0.441-0.137c0.162-0.011,0.303,0.016,0.422,0.091
	c0.119,0.071,0.202,0.184,0.247,0.336c0.044,0.155,0.022,0.353-0.069,0.599c0.338-0.015,0.607-0.104,0.816-0.28
	c0.207-0.171,0.35-0.377,0.437-0.617c0.086-0.239,0.112-0.496,0.081-0.768c-0.025-0.274-0.11-0.516-0.25-0.731
	c-0.138-0.213-0.327-0.382-0.574-0.503c-0.239-0.127-0.53-0.156-0.867-0.099c-0.309,0.057-0.559,0.182-0.744,0.384
	c-0.193,0.203-0.352,0.446-0.475,0.729c-0.122,0.284-0.219,0.599-0.294,0.943c-0.071,0.344-0.14,0.684-0.206,1.022H98.16
	C98.102,7.42,98.083,7.155,98.111,6.9c0.025-0.26,0.076-0.517,0.15-0.768c0.076-0.257,0.16-0.509,0.27-0.762
	c0.105-0.25,0.209-0.5,0.309-0.751c0.098-0.249,0.187-0.5,0.261-0.749c0.069-0.251,0.111-0.502,0.128-0.761
	c0.014-0.32-0.019-0.625-0.098-0.919c-0.078-0.292-0.187-0.569-0.328-0.831c-0.134-0.261-0.298-0.502-0.484-0.728
	C98.131,0.404,97.934,0.198,97.721,0c-0.208,0.198-0.403,0.404-0.595,0.631c-0.187,0.226-0.349,0.467-0.486,0.728
	c-0.136,0.262-0.246,0.539-0.326,0.831c-0.077,0.293-0.108,0.599-0.097,0.919c0.02,0.386,0.1,0.761,0.252,1.136
	c0.146,0.374,0.299,0.751,0.449,1.125c0.156,0.381,0.277,0.762,0.373,1.142c0.092,0.382,0.097,0.773,0.005,1.178h-0.358
	c-0.066-0.338-0.137-0.678-0.208-1.022c-0.07-0.345-0.167-0.659-0.292-0.943c-0.124-0.283-0.281-0.526-0.473-0.729
	c-0.189-0.203-0.439-0.328-0.747-0.384c-0.335-0.057-0.626-0.029-0.867,0.099c-0.245,0.122-0.435,0.29-0.572,0.503
	c-0.141,0.215-0.225,0.457-0.253,0.731c-0.032,0.272-0.006,0.529,0.086,0.768c0.081,0.239,0.229,0.446,0.436,0.617
	c0.205,0.176,0.474,0.266,0.813,0.28c-0.097-0.246-0.122-0.444-0.074-0.599c0.049-0.152,0.135-0.265,0.255-0.336
	c0.121-0.075,0.261-0.102,0.421-0.091c0.157,0.011,0.31,0.06,0.448,0.137c0.138,0.084,0.246,0.202,0.326,0.354
	c0.077,0.148,0.099,0.326,0.061,0.535c-0.031,0.047-0.076,0.074-0.141,0.08c-0.064,0.007-0.133,0.01-0.207,0.004
	c-0.074-0.004-0.15-0.007-0.23-0.011c-0.076-0.002-0.15,0-0.209,0.006c-0.007,0.038-0.013,0.098-0.017,0.185
	c-0.003,0.085-0.005,0.181-0.005,0.272c0,0.101,0.002,0.194,0.005,0.285c0.004,0.087,0.01,0.147,0.017,0.179h1.641
	c0,0.002-0.002,0.003-0.002,0.008H98.297z"/>
<path fill="#BD0926" d="M107.412,8.619c0-0.004,0-0.005,0-0.008h1.651c0.007-0.032,0.013-0.091,0.013-0.179V8.147V7.875
	c0-0.087-0.006-0.147-0.013-0.185c-0.06-0.006-0.131-0.009-0.208-0.006c-0.078,0.004-0.156,0.006-0.229,0.011
	c-0.075,0.005-0.146,0.003-0.209-0.004c-0.066-0.006-0.113-0.033-0.142-0.08c-0.044-0.209-0.026-0.387,0.06-0.535
	c0.081-0.152,0.189-0.27,0.321-0.354c0.136-0.077,0.285-0.126,0.444-0.137c0.16-0.011,0.303,0.016,0.422,0.091
	c0.119,0.071,0.201,0.184,0.246,0.336c0.045,0.155,0.021,0.353-0.068,0.599c0.339-0.015,0.607-0.104,0.816-0.28
	c0.203-0.171,0.352-0.377,0.438-0.617s0.111-0.496,0.082-0.768c-0.029-0.274-0.114-0.516-0.254-0.731
	c-0.135-0.213-0.326-0.382-0.57-0.503c-0.243-0.127-0.533-0.156-0.871-0.099c-0.308,0.057-0.553,0.182-0.742,0.384
	c-0.193,0.203-0.353,0.446-0.474,0.729c-0.124,0.284-0.22,0.599-0.295,0.943c-0.07,0.344-0.136,0.684-0.206,1.022h-0.348
	c-0.059-0.271-0.076-0.535-0.048-0.791c0.022-0.26,0.074-0.517,0.147-0.768c0.078-0.257,0.166-0.509,0.273-0.762
	c0.105-0.25,0.207-0.5,0.31-0.751c0.097-0.249,0.185-0.5,0.256-0.749c0.073-0.251,0.116-0.502,0.13-0.761
	c0.014-0.32-0.018-0.625-0.099-0.919c-0.076-0.292-0.185-0.569-0.327-0.831c-0.134-0.261-0.297-0.502-0.482-0.728
	c-0.191-0.227-0.39-0.433-0.599-0.631c-0.208,0.198-0.405,0.404-0.595,0.631c-0.186,0.226-0.35,0.467-0.488,0.728
	c-0.136,0.262-0.246,0.539-0.326,0.831c-0.076,0.293-0.109,0.599-0.092,0.919c0.016,0.386,0.094,0.761,0.247,1.136
	c0.149,0.374,0.302,0.751,0.452,1.125c0.154,0.381,0.277,0.762,0.37,1.142c0.095,0.382,0.095,0.773,0.006,1.178h-0.356
	c-0.069-0.338-0.141-0.678-0.21-1.022c-0.071-0.345-0.167-0.659-0.291-0.943c-0.126-0.283-0.28-0.526-0.472-0.729
	s-0.439-0.328-0.747-0.384c-0.337-0.057-0.628-0.029-0.87,0.099c-0.244,0.122-0.434,0.29-0.572,0.503
	c-0.139,0.215-0.223,0.457-0.251,0.731c-0.032,0.272-0.007,0.529,0.083,0.768s0.233,0.446,0.439,0.617
	c0.203,0.176,0.476,0.266,0.811,0.28c-0.095-0.246-0.117-0.444-0.07-0.599c0.046-0.152,0.133-0.265,0.25-0.336
	c0.121-0.075,0.262-0.102,0.424-0.091c0.159,0.011,0.31,0.06,0.447,0.137c0.135,0.084,0.248,0.202,0.326,0.354
	c0.076,0.148,0.1,0.326,0.061,0.535c-0.031,0.047-0.076,0.074-0.139,0.08c-0.063,0.007-0.135,0.01-0.209,0.004
	c-0.073-0.004-0.15-0.007-0.23-0.011c-0.076-0.002-0.148,0-0.207,0.006c-0.005,0.038-0.015,0.098-0.016,0.185
	c-0.004,0.085-0.008,0.181-0.008,0.272c0,0.101,0.004,0.194,0.008,0.285c0.001,0.087,0.011,0.147,0.016,0.179h1.641
	c0,0.002,0,0.003,0,0.008H107.412z"/>
<path fill="#BD0926" d="M86.682,59.446l0.78-0.007c0.782-0.007,0.94-0.081,0.933-0.855l-0.031-3.898
	c-0.009-0.952-0.36-1.161-1.73-1.16l-0.002-0.17c1.212-0.075,1.991-0.313,2.362-0.772l0.249-0.001l0.047,5.994
	c0.006,0.752,0.155,0.848,0.868,0.84l0.668-0.005v0.149l-4.143,0.031V59.446z"/>
<path fill="#BD0926" d="M92.805,59.397l0.701-0.008c0.736-0.005,0.859-0.143,0.854-0.831l-0.009-1.038l-2.737,0.021l-0.006-0.572
	l3.156-4.431l0.41-0.002l0.035,4.564l1.346-0.012l0.004,0.414l-1.347,0.01l0.007,0.944c0.006,0.729,0.111,0.92,0.801,0.914
	l0.555-0.005v0.149l-3.768,0.03L92.805,59.397z M94.319,53.442l-2.53,3.547l0.001,0.139l2.56-0.02L94.319,53.442z"/>
<path fill="#BD0926" d="M101.36,57.719c0.009,1.101-0.868,1.892-2.239,1.902c-1.278,0.011-2.133-0.683-2.141-1.528
	c-0.004-0.488,0.29-0.797,0.686-0.8c0.293-0.003,0.498,0.197,0.5,0.505c0.004,0.273-0.152,0.457-0.479,0.607
	c-0.169,0.076-0.305,0.076-0.304,0.246c0.002,0.274,0.675,0.819,1.567,0.813c0.995-0.008,1.433-0.594,1.424-1.801
	c-0.009-1.123-0.478-1.701-1.314-1.693c-0.264,0-0.499,0.119-0.68,0.121c-0.169,0.001-0.249-0.02-0.249-0.105
	c-0.002-0.126,0.134-0.148,0.428-0.15c1.281-0.012,1.719-0.438,1.707-1.72c-0.007-0.942-0.463-1.415-1.335-1.408
	c-0.827,0.006-1.366,0.413-1.364,0.773c0.001,0.138,0.113,0.127,0.296,0.209c0.251,0.115,0.354,0.272,0.355,0.506
	c0.003,0.307-0.188,0.51-0.493,0.512c-0.307,0.003-0.569-0.271-0.573-0.705c-0.005-0.794,0.782-1.468,1.834-1.476
	c1.325-0.01,2.226,0.724,2.233,1.613c0.006,0.795-0.646,1.467-1.742,1.688l0.001,0.085C100.679,56.135,101.352,56.797,101.36,57.719
	z"/>
<path fill="#BD0926" d="M102.605,59.318l0.781-0.007c0.783-0.006,0.939-0.082,0.934-0.854l-0.031-3.896
	c-0.008-0.954-0.359-1.164-1.73-1.162l-0.001-0.17c1.212-0.073,1.99-0.313,2.36-0.771l0.25-0.001l0.046,5.994
	c0.006,0.751,0.155,0.846,0.868,0.841l0.667-0.006v0.147l-4.141,0.032L102.605,59.318z"/>
<path fill="#A38977" d="M32.582,101.689c-0.845,0.007-1.433-0.657-1.441-1.794c-0.002-0.297,0.046-0.692,0.123-1.188l-0.159-0.049
	c-0.856,2.034-2.064,3.059-3.519,3.07c-1.822,0.014-3.236-1.583-3.255-3.98c-0.015-1.804,0.687-3.441,2.154-5.035
	c1.284-1.42,2.519-2.12,3.655-2.13c1.428-0.011,2.201,0.872,2.216,2.602c0,0.1,0.001,0.197,0.001,0.322l0.159,0.05l1.539-5.996
	c0.102-0.422,0.205-0.794,0.203-1.066c-0.007-0.864-0.724-1.155-2.256-1.143c-0.186,0.002-0.372,0.002-0.556,0.004l-0.002-0.32
	l5.102-0.041l-3.904,14.271c-0.18,0.645-0.282,1.114-0.279,1.437c0.004,0.37,0.163,0.567,0.454,0.564
	c0.793-0.007,2.051-1.426,3.058-4.252l0.318,0.072C35.211,100.11,33.77,101.68,32.582,101.689z M30.056,99.879
	c1.123-1.614,1.999-4.44,1.983-6.491c-0.015-1.657-0.628-2.517-1.844-2.507c-0.741,0.005-1.555,0.531-2.155,1.499
	c-0.523,0.844-0.884,1.813-1.246,2.928c-0.541,1.736-0.768,3.096-0.76,4.01c0.012,1.385,0.599,2.098,1.629,2.089
	C28.508,101.399,29.35,100.874,30.056,99.879z"/>
<path fill="#A38977" d="M39.402,101.658c-1.93,0.017-3.475-1.603-3.495-4.001c-0.013-1.682,0.766-3.394,2.339-5.063
	c1.336-1.395,2.626-2.121,3.709-2.131c1.268-0.009,2.253,0.897,2.263,2.01c0.017,2.2-2.06,3.65-6.151,4.227
	c-0.284,0.918-0.41,1.734-0.404,2.426c0.011,1.41,0.651,2.146,1.761,2.138c1.585-0.013,3.318-1.337,4.831-3.995l0.318,0.172
	C43.011,100.222,41.146,101.646,39.402,101.658z M43.451,92.405c-0.007-0.939-0.648-1.602-1.468-1.594
	c-1.425,0.01-2.733,1.85-3.787,5.492C41.601,95.905,43.466,94.407,43.451,92.405z"/>
</svg>
